<svg id="Layer_1" data-name="Layer 1" xmlns="http://www.w3.org/2000/svg" xmlns:xlink="http://www.w3.org/1999/xlink" viewBox="0 0 293 278.06"><defs><style>.cls-1{fill:#f04e30;}.cls-2{fill:url(#linear-gradient);}.cls-3{fill:url(#linear-gradient-2);}</style><linearGradient id="linear-gradient" x1="-504.18" y1="2242.33" x2="-392.52" y2="2393.22" gradientTransform="translate(620.01 2438.78) rotate(157.5)" gradientUnits="userSpaceOnUse"><stop offset="0.27" stop-color="#503746"/><stop offset="0.35" stop-color="#843e3f"/><stop offset="0.44" stop-color="#b24538"/><stop offset="0.52" stop-color="#d44a34"/><stop offset="0.58" stop-color="#e94d31"/><stop offset="0.63" stop-color="#f04e30"/></linearGradient><linearGradient id="linear-gradient-2" x1="86.64" y1="1647.36" x2="105.44" y2="1504.58" gradientTransform="translate(-546.29 -1258.09) rotate(-22.5)" gradientUnits="userSpaceOnUse"><stop offset="0.41" stop-color="#3cbd8d"/><stop offset="0.5" stop-color="#3db98b"/><stop offset="0.58" stop-color="#3eae85"/><stop offset="0.65" stop-color="#419c7b"/><stop offset="0.73" stop-color="#45826e"/><stop offset="0.8" stop-color="#4a605c"/><stop offset="0.87" stop-color="#503847"/><stop offset="0.87" stop-color="#503746"/></linearGradient></defs><title>Artboard 2</title><path class="cls-1" d="M234.42,163A95.62,95.62,0,0,0,178.85,49.29h0A95.62,95.62,0,0,0,53.93,101h0V101h0a97.58,97.58,0,0,0-3.8,11.14h0a95.62,95.62,0,0,0,55.57,113.74h0A95.63,95.63,0,0,0,230.6,174.22h0v0h0a97.07,97.07,0,0,0,3.8-11.15Zm-59-11.7c-.27.64-.55,1.26-.84,1.88h0c-8.74,18.48-29.4,27.49-47.11,20.16-18.29-7.58-26.49-29.73-18.32-49.48.27-.64.55-1.27.84-1.88h0c8.73-18.49,29.4-27.49,47.11-20.16C175.37,109.43,183.57,131.58,175.4,151.33Z"/><path class="cls-2" d="M53.93,101h0V101h0a97.58,97.58,0,0,0-3.8,11.14A65.92,65.92,0,0,0,89.3,187h0a65.89,65.89,0,0,0,85.26-33.77c-8.74,18.48-29.4,27.49-47.11,20.16-18.29-7.58-26.49-29.73-18.32-49.48.27-.64.55-1.27.84-1.88h0a65.88,65.88,0,0,1,85.26-33.77h0A65.91,65.91,0,0,1,234.42,163,95.62,95.62,0,0,0,178.85,49.29h0A95.61,95.61,0,0,0,53.93,101Z"/><path class="cls-3" d="M110,122c8.73-18.49,29.4-27.49,47.11-20.16,18.29,7.58,26.49,29.73,18.32,49.48-.27.64-.55,1.26-.84,1.88A65.89,65.89,0,0,1,89.3,187h0a65.92,65.92,0,0,1-39.19-74.8,95.63,95.63,0,0,0,55.57,113.75h0A95.63,95.63,0,0,0,230.6,174.22h0v0h0a97.07,97.07,0,0,0,3.8-11.15,65.91,65.91,0,0,0-39.19-74.79h0A65.88,65.88,0,0,0,110,122Z"/></svg>